<svg width="31" height="31" viewBox="0 0 31 31" fill="none" xmlns="http://www.w3.org/2000/svg">
<path d="M3.95563 15.1593C3.95563 8.92717 9.0078 3.875 15.24 3.875V3.875C21.4721 3.875 26.5243 8.92717 26.5243 15.1593V15.8407C26.5243 22.0728 21.4721 27.125 15.24 27.125V27.125C9.0078 27.125 3.95563 22.0728 3.95563 15.8407V15.1593Z" stroke="black"/>
<ellipse cx="15.2399" cy="12.9167" rx="5.01526" ry="5.16667" fill="#B20000"/>
<path fill-rule="evenodd" clip-rule="evenodd" d="M23.1054 23.6822C23.1593 23.7782 23.141 23.8981 23.0617 23.9744C21.0332 25.9255 18.2767 27.125 15.2399 27.125C12.2033 27.125 9.44675 25.9255 7.41834 23.9745C7.33901 23.8982 7.32067 23.7783 7.37463 23.6823C8.81041 21.1295 11.7932 19.375 15.24 19.375C18.6868 19.375 21.6696 21.1295 23.1054 23.6822Z" fill="#B20000"/>
</svg>
